<?xml version="1.0" encoding="utf-8"?>
<!-- Generator: Adobe Illustrator 24.1.0, SVG Export Plug-In . SVG Version: 6.00 Build 0)  -->
<svg version="1.1" id="Layer_1" xmlns="http://www.w3.org/2000/svg" xmlns:xlink="http://www.w3.org/1999/xlink" x="0px" y="0px"
	 viewBox="0 0 72 72" style="enable-background:new 0 0 72 72;" xml:space="preserve">
<style type="text/css">
	.st0{fill:#FFFFFF;}
</style>
<g id="parking-area" transform="translate(0.001 -15.166)">
	<path id="Path_131" class="st0" d="M1.12,44.17c0.15,0,0.3-0.02,0.44-0.07l1.41-0.46v15.98c0,0,0,0.01,0,0.01s0,0.03,0,0.04
		s0,0.02,0,0.03l0.43,7.32c0.03,2.21,1.83,3.99,4.04,3.99h17.48c2.21,0,4.01-1.78,4.04-3.99l0.43-7.32c0-0.01,0-0.03,0-0.04
		s0-0.02,0-0.03s0-0.01,0-0.02V43.64l1.41,0.46c0.74,0.23,1.54-0.19,1.77-0.93c0.23-0.73-0.17-1.5-0.89-1.75l-2.45-0.8l-2.27-13.42
		c-0.35-2.22-2.27-3.86-4.52-3.85H9.82c-2.25-0.01-4.17,1.63-4.52,3.85L3.12,40.61l-2.44,0.8c-0.74,0.24-1.14,1.04-0.9,1.78
		C-0.03,43.78,0.51,44.17,1.12,44.17L1.12,44.17z M6.23,39.11l1.18-7.31h3.19c1.54,0,2.84-1.16,3.01-2.69l0.34-2.95h4.33l0.34,2.94
		c0.18,1.53,1.47,2.69,3.02,2.69h3.21l1.24,7.27c-1.84-0.74-3.76-1.26-5.72-1.54c-1.46-0.25-2.95-0.37-4.44-0.34
		C12.61,37.27,9.33,37.91,6.23,39.11L6.23,39.11z M16.75,40.02c2.94,0.06,5.83,0.66,8.55,1.78l-3.5,2.37H10.56l-3.48-2.36
		c2.21-0.89,4.54-1.44,6.91-1.63C14.9,40.06,15.82,40.01,16.75,40.02L16.75,40.02z M20.82,46.99v5.68h-9.28v-5.68L20.82,46.99z
		 M23.64,53.48v-7.15l2.92-1.96V56.3L23.64,53.48z M8.71,53.48L5.79,56.3V44.35l2.92,1.98V53.48z M10.69,55.49h10.97l2.81,2.71H7.88
		L10.69,55.49z M26.13,66.97c0,0.67-0.54,1.22-1.22,1.22H7.44c-0.67,0-1.22-0.54-1.22-1.22c0-0.03,0-0.05,0-0.08l-0.34-5.86h20.6
		l-0.34,5.86C26.14,66.92,26.14,66.94,26.13,66.97L26.13,66.97z M22.41,26.17c0.86,0,1.59,0.62,1.73,1.46l0.23,1.35h-2.73
		c-0.11,0-0.2-0.08-0.21-0.19l-0.3-2.62H22.41z M9.82,26.17h1.29l-0.3,2.62c-0.01,0.11-0.1,0.19-0.21,0.19H7.87l0.22-1.33
		C8.22,26.79,8.96,26.17,9.82,26.17L9.82,26.17z"/>
	<path id="Path_132" class="st0" d="M40.03,41.42c-0.74,0.23-1.16,1.02-0.93,1.77s1.02,1.16,1.77,0.93c0.01,0,0.03-0.01,0.04-0.01
		l1.41-0.46v15.98c0,0,0,0.01,0,0.01s0,0.03,0,0.04s0,0.02,0,0.03l0.43,7.32c0.03,2.21,1.83,3.99,4.04,3.99h17.48
		c2.21,0,4.01-1.78,4.04-3.99l0.43-7.32c0-0.01,0-0.03,0-0.04v-0.01c0-0.01,0-0.02,0-0.03V43.64l1.41,0.46
		c0.74,0.25,1.54-0.14,1.8-0.87s-0.14-1.54-0.87-1.8c-0.01,0-0.03-0.01-0.04-0.01l-2.45-0.8l-1.99-11.62l-0.29-1.8
		c-0.35-2.22-2.27-3.86-4.52-3.85h-12.6c-2.25-0.01-4.17,1.63-4.52,3.85l-2.17,13.42L40.03,41.42z M45.58,39.11l1.18-7.31h3.19
		c1.54,0,2.84-1.15,3.02-2.69l0.34-2.95h4.33l0.34,2.94c0.18,1.53,1.47,2.69,3.02,2.69h3.21l1.24,7.27
		c-2.53-1.01-5.21-1.61-7.93-1.8c-0.57-0.05-1.13-0.09-1.7-0.09C52.31,37.14,48.83,37.8,45.58,39.11L45.58,39.11z M58.16,40.19
		c2.23,0.21,4.41,0.75,6.48,1.62l-3.5,2.37H49.91l-3.48-2.36c2.57-1.02,5.29-1.61,8.06-1.73C55.71,40,56.94,40.03,58.16,40.19
		L58.16,40.19z M60.17,47v5.68h-9.28v-5.68L60.17,47z M62.99,53.48v-7.15l2.92-1.96V56.3L62.99,53.48z M48.06,53.48l-2.92,2.82
		V44.35l2.92,1.98V53.48z M50.04,55.49h10.97l2.81,2.71H47.23L50.04,55.49z M65.48,66.97c0,0.67-0.54,1.22-1.22,1.22H46.78
		c-0.67,0-1.22-0.54-1.22-1.22c0-0.03,0-0.06,0-0.08l-0.34-5.86h20.6l-0.34,5.86C65.48,66.92,65.48,66.94,65.48,66.97L65.48,66.97z
		 M61.75,26.17c0.86,0,1.59,0.62,1.73,1.46l0.23,1.35h-2.73c-0.11,0-0.2-0.08-0.21-0.19l-0.3-2.62L61.75,26.17z M49.17,26.17h1.29
		l-0.3,2.62c-0.01,0.11-0.1,0.19-0.21,0.19h-2.73l0.22-1.33C47.57,26.8,48.3,26.17,49.17,26.17L49.17,26.17z"/>
	<path id="Path_133" class="st0" d="M70.58,79.56c0.78-0.02,1.39-0.67,1.37-1.45c-0.02-0.75-0.62-1.35-1.37-1.37H37.26V66.32
		c-0.02-0.78-0.67-1.39-1.45-1.37c-0.75,0.02-1.35,0.62-1.37,1.37v10.42H1.12c-0.78,0.02-1.39,0.67-1.37,1.45
		c0.02,0.75,0.62,1.35,1.37,1.37H13.6v3.15H1.12c-0.78-0.02-1.43,0.59-1.45,1.37c-0.02,0.78,0.59,1.43,1.37,1.45
		c0.03,0,0.05,0,0.08,0h69.46c0.78,0.02,1.43-0.59,1.45-1.37c0.02-0.78-0.59-1.43-1.37-1.45c-0.03,0-0.05,0-0.08,0H58.1v-3.15H70.58
		z M16.43,79.56h11.07v3.15H16.43L16.43,79.56z M30.32,79.56h11.07v3.15H30.32L30.32,79.56z M44.21,79.56h11.07v3.15H44.21
		L44.21,79.56z"/>
	<path id="Path_134" class="st0" d="M32.93,20.36h1.51v32.86c-0.02,0.78,0.59,1.43,1.37,1.45c0.78,0.02,1.43-0.59,1.45-1.37
		c0-0.03,0-0.05,0-0.08V20.36h1.45c0.78,0.02,1.43-0.59,1.45-1.37c0.02-0.78-0.59-1.43-1.37-1.45c-0.03,0-0.05,0-0.08,0h-5.78
		c-0.78,0.02-1.39,0.67-1.37,1.45C31.57,19.74,32.18,20.34,32.93,20.36L32.93,20.36z"/>
	<path id="Path_135" class="st0" d="M37.03,58.99c-0.43-0.65-1.31-0.82-1.96-0.39c-0.65,0.43-0.82,1.31-0.39,1.96
		c0.43,0.65,1.31,0.82,1.96,0.39C37.28,60.51,37.45,59.64,37.03,58.99z"/>
</g>
</svg>
