<svg xmlns="http://www.w3.org/2000/svg" width="71.787" height="67.534" viewBox="0 0 71.787 67.534">
  <g id="parking-area" transform="translate(0.001 -15.166)">
    <path id="Path_1" data-name="Path 1" d="M1.4,76.995a1.407,1.407,0,0,0,.437-.07l1.4-.458v15.87s0,.007,0,.01,0,.028,0,.042,0,.02,0,.03l.424,7.269a4.016,4.016,0,0,0,4.011,3.966H25.036a4.016,4.016,0,0,0,4.011-3.967l.424-7.269c0-.012,0-.025,0-.037s0-.02,0-.029,0-.01,0-.015V76.467l1.4.458a1.4,1.4,0,0,0,.874-2.665l-2.433-.8L27.048,60.137a4.532,4.532,0,0,0-4.492-3.822H10.039a4.533,4.533,0,0,0-4.492,3.822L3.39,73.465l-2.425.8A1.4,1.4,0,0,0,1.4,76.995Zm5.072-5.027,1.174-7.255h3.165a3.013,3.013,0,0,0,3-2.668l.339-2.926h4.3l.339,2.924a3.013,3.013,0,0,0,3,2.669H24.97L26.2,71.937a24.251,24.251,0,0,0-5.683-1.524,23.51,23.51,0,0,0-4.406-.339,28.335,28.335,0,0,0-9.643,1.894Zm10.444.907a23.378,23.378,0,0,1,8.49,1.769L21.934,77H10.774L7.315,74.652a23.421,23.421,0,0,1,6.863-1.621A19.187,19.187,0,0,1,16.917,72.874ZM20.963,79.8v5.637H11.745V79.8Zm2.8,6.443v-7.1l2.9-1.948V89.039Zm-14.826,0-2.9,2.8V77.176l2.9,1.966Zm1.968,2H21.8l2.8,2.693H8.114Zm15.334,11.4a1.209,1.209,0,0,1-1.207,1.207H7.673a1.209,1.209,0,0,1-1.207-1.207c0-.027,0-.054,0-.082l-.339-5.822H26.585l-.339,5.822Q26.243,99.6,26.243,99.642Zm-3.7-40.523a1.742,1.742,0,0,1,1.721,1.452l.229,1.338H21.783a.21.21,0,0,1-.21-.186l-.3-2.6H22.54Zm-12.5,0h1.284l-.3,2.6a.21.21,0,0,1-.21.185H8.1l.214-1.323a1.739,1.739,0,0,1,1.724-1.466Z" transform="translate(0 -35.38)" fill="#1b3e6c"/>
    <path id="Path_2" data-name="Path 2" d="M279.673,74.26a1.4,1.4,0,1,0,.874,2.665l1.4-.458v15.87s0,.007,0,.01,0,.028,0,.042,0,.02,0,.03l.424,7.269a4.016,4.016,0,0,0,4.011,3.966h17.363a4.016,4.016,0,0,0,4.011-3.967l.424-7.269c0-.013,0-.026,0-.039v-.011c0-.011,0-.021,0-.032V76.467l1.4.458a1.4,1.4,0,1,0,.874-2.665l-2.433-.8L306.046,61.92l-.289-1.783a4.533,4.533,0,0,0-4.492-3.822H288.748a4.533,4.533,0,0,0-4.492,3.822L282.1,73.465Zm5.508-2.292,1.174-7.255h3.165a3.013,3.013,0,0,0,3-2.668l.339-2.926h4.3l.339,2.925a3.014,3.014,0,0,0,3,2.669h3.186l1.235,7.224a26.146,26.146,0,0,0-7.877-1.785c-.561-.047-1.125-.086-1.688-.091A26.416,26.416,0,0,0,285.182,71.968Zm12.5,1.07a22.061,22.061,0,0,1,6.436,1.606L300.643,77h-11.16l-3.459-2.345a24.6,24.6,0,0,1,8-1.722A19.515,19.515,0,0,1,297.679,73.038Zm1.993,6.763v5.637h-9.217V79.8Zm2.8,6.443v-7.1l2.9-1.948V89.039Zm-14.826,0-2.9,2.8V77.176l2.9,1.966Zm1.968,2h10.89l2.8,2.693h-16.48Zm15.334,11.4a1.209,1.209,0,0,1-1.207,1.207H286.382a1.209,1.209,0,0,1-1.207-1.207c0-.027,0-.054,0-.082l-.339-5.822h20.461l-.339,5.822q0,.041,0,.082Zm-3.7-40.523a1.742,1.742,0,0,1,1.721,1.452l.229,1.338h-2.707a.21.21,0,0,1-.21-.186l-.3-2.6Zm-12.5,0h1.284l-.3,2.6a.21.21,0,0,1-.21.185H286.81l.214-1.323A1.739,1.739,0,0,1,288.748,59.119Z" transform="translate(-239.632 -35.38)" fill="#1b3e6c"/>
    <path id="Path_3" data-name="Path 3" d="M70.387,365.274a1.4,1.4,0,1,0,0-2.8H37.3V352.124a1.4,1.4,0,0,0-2.8,0V362.47H1.405a1.4,1.4,0,0,0,0,2.8H13.8V368.4H1.405a1.4,1.4,0,0,0,0,2.8H70.387a1.4,1.4,0,0,0,0-2.8H57.993v-3.131Zm-53.783,0H27.6V368.4H16.6Zm13.8,0H41.392V368.4H30.4Zm13.8,0H55.188V368.4H44.2Z" transform="translate(-0.004 -288.509)" fill="#1b3e6c"/>
    <path id="Path_4" data-name="Path 4" d="M226.7,17.97h1.5V50.608a1.4,1.4,0,1,0,2.8,0V17.97h1.436a1.4,1.4,0,1,0,0-2.8H226.7a1.4,1.4,0,1,0,0,2.8Z" transform="translate(-193.708)" fill="#1b3e6c"/>
    <path id="Path_5" data-name="Path 5" d="M248.609,305.017a1.4,1.4,0,1,0-.387,1.943A1.414,1.414,0,0,0,248.609,305.017Z" transform="translate(-211.551 -248.681)" fill="#1b3e6c"/>
  </g>
</svg>
