<svg id="clock" xmlns="http://www.w3.org/2000/svg" width="78.263" height="78.263" viewBox="0 0 78.263 78.263">
  <path id="Path_13" data-name="Path 13" d="M66.8,11.461A39.132,39.132,0,0,0,11.461,66.8,39.132,39.132,0,0,0,66.8,11.461ZM65.072,65.072A36.686,36.686,0,0,1,13.191,13.191,36.686,36.686,0,0,1,65.072,65.072Z" transform="translate(0)" fill="#1b3e6c"/>
  <path id="Path_14" data-name="Path 14" d="M34.446,66.24A31.8,31.8,0,0,1,83.9,39.8a1.223,1.223,0,0,0,1.36-2.032,34.242,34.242,0,0,0-44.546,51.3,1.223,1.223,0,1,0,1.822-1.631A31.74,31.74,0,0,1,34.446,66.24Z" transform="translate(-27.109 -27.109)" fill="#1b3e6c"/>
  <path id="Path_15" data-name="Path 15" d="M162.476,128.539a1.223,1.223,0,0,0-2.032,1.36,31.8,31.8,0,0,1-46.46,42.365,1.223,1.223,0,1,0-1.541,1.9,34.243,34.243,0,0,0,50.034-45.624Z" transform="translate(-94.871 -108.431)" fill="#1b3e6c"/>
  <path id="Path_16" data-name="Path 16" d="M392.4,89.128a32.071,32.071,0,0,1,2.356,2.34,1.223,1.223,0,0,0,1.811-1.644,34.588,34.588,0,0,0-2.536-2.519,1.223,1.223,0,0,0-1.631,1.823Z" transform="translate(-332.074 -73.696)" fill="#1b3e6c"/>
  <path id="Path_17" data-name="Path 17" d="M249.223,70.114a1.223,1.223,0,0,0,1.223-1.223V65.223a1.223,1.223,0,1,0-2.446,0v3.669A1.223,1.223,0,0,0,249.223,70.114Z" transform="translate(-210.091 -54.217)" fill="#1b3e6c"/>
  <path id="Path_18" data-name="Path 18" d="M248,409.223v3.669a1.223,1.223,0,1,0,2.446,0v-3.669a1.223,1.223,0,1,0-2.446,0Z" transform="translate(-210.091 -345.634)" fill="#1b3e6c"/>
  <path id="Path_19" data-name="Path 19" d="M70.114,249.223A1.223,1.223,0,0,0,68.891,248H65.223a1.223,1.223,0,1,0,0,2.446h3.669A1.223,1.223,0,0,0,70.114,249.223Z" transform="translate(-54.217 -210.091)" fill="#1b3e6c"/>
  <path id="Path_20" data-name="Path 20" d="M408,249.223a1.223,1.223,0,0,0,1.223,1.223h3.669a1.223,1.223,0,1,0,0-2.446h-3.669A1.223,1.223,0,0,0,408,249.223Z" transform="translate(-345.634 -210.091)" fill="#1b3e6c"/>
  <path id="Path_21" data-name="Path 21" d="M160.115,92.439l-1.834-3.177a1.223,1.223,0,0,0-2.118,1.223L158,93.662a1.223,1.223,0,1,0,2.118-1.223Z" transform="translate(-132.153 -75.099)" fill="#1b3e6c"/>
  <path id="Path_22" data-name="Path 22" d="M330.281,387.175a1.223,1.223,0,1,0-2.118,1.223L330,391.575a1.223,1.223,0,1,0,2.118-1.223Z" transform="translate(-277.862 -327.475)" fill="#1b3e6c"/>
  <path id="Path_23" data-name="Path 23" d="M89.875,332.28a1.219,1.219,0,0,0,.61-.164l3.177-1.834a1.223,1.223,0,0,0-1.223-2.118L89.263,330a1.223,1.223,0,0,0,.612,2.282Z" transform="translate(-75.1 -277.863)" fill="#1b3e6c"/>
  <path id="Path_24" data-name="Path 24" d="M387.787,160.28a1.218,1.218,0,0,0,.61-.164l3.177-1.834a1.223,1.223,0,1,0-1.223-2.118L387.175,158a1.223,1.223,0,0,0,.612,2.282Z" transform="translate(-327.474 -132.154)" fill="#1b3e6c"/>
  <path id="Path_25" data-name="Path 25" d="M331.668,88.813a1.223,1.223,0,0,0-1.67.448l-1.834,3.177a1.223,1.223,0,1,0,2.118,1.223l1.834-3.177A1.223,1.223,0,0,0,331.668,88.813Z" transform="translate(-277.862 -75.099)" fill="#1b3e6c"/>
  <path id="Path_26" data-name="Path 26" d="M159.668,386.727a1.223,1.223,0,0,0-1.67.448l-1.834,3.177a1.223,1.223,0,1,0,2.118,1.223l1.834-3.177A1.223,1.223,0,0,0,159.668,386.727Z" transform="translate(-132.153 -327.474)" fill="#1b3e6c"/>
  <path id="Path_27" data-name="Path 27" d="M387.175,330.281l3.177,1.834A1.223,1.223,0,1,0,391.575,330l-3.177-1.834a1.223,1.223,0,0,0-1.223,2.118Z" transform="translate(-327.474 -277.862)" fill="#1b3e6c"/>
  <path id="Path_28" data-name="Path 28" d="M93.662,158l-3.177-1.834a1.223,1.223,0,1,0-1.223,2.118l3.177,1.834A1.223,1.223,0,1,0,93.662,158Z" transform="translate(-75.099 -132.153)" fill="#1b3e6c"/>
  <path id="Path_29" data-name="Path 29" d="M244.181,156.755a1.223,1.223,0,0,0,1.058-1.834l-6.784-11.75a3.665,3.665,0,0,0-1.564-5.84V121.223a1.223,1.223,0,1,0-2.446,0V137.33a3.668,3.668,0,0,0,1.893,7.064l6.783,11.748A1.222,1.222,0,0,0,244.181,156.755Zm-9.736-15.966a1.223,1.223,0,1,1,1.223,1.223A1.224,1.224,0,0,1,234.446,140.789Z" transform="translate(-196.537 -101.657)" fill="#1b3e6c"/>
</svg>
