<?xml version="1.0" encoding="utf-8"?>
<!-- Generator: Adobe Illustrator 24.1.0, SVG Export Plug-In . SVG Version: 6.00 Build 0)  -->
<svg version="1.1" id="Layer_1" xmlns="http://www.w3.org/2000/svg" xmlns:xlink="http://www.w3.org/1999/xlink" x="0px" y="0px"
	 viewBox="0 0 72 72" style="enable-background:new 0 0 72 72;" xml:space="preserve">
<style type="text/css">
	.st0{fill:#FFFFFF;}
</style>
<g id="parking-car" transform="translate(-0.001)">
	<g id="Group_81" transform="translate(0.001 0)">
		<path id="Path_99" class="st0" d="M62.08,32.81H51.26c-0.75-0.81-1.81-1.27-2.91-1.27h-3.03l-0.3-1.9
			c-0.46-3.03-2.58-5.54-5.49-6.5V8.22c0-2.65,2.15-4.8,4.8-4.8h19.78c2.65,0,4.8,2.15,4.8,4.8v19.78c0,0.17-0.01,0.33-0.03,0.5
			c-0.24,2.25-2.19,3.94-4.44,4.11L62.08,32.81z M66.13,34.49L66.13,34.49c0.12,0,0.24-0.02,0.35-0.06
			c2.69-0.99,4.47-3.55,4.48-6.42V8.22c0-3.78-3.06-6.84-6.84-6.84H44.34c-3.78,0-6.83,3.06-6.84,6.84v14.51
			c-0.18-0.01-0.36-0.02-0.55-0.02H16.84c-4.03-0.02-7.47,2.93-8.07,6.92l-0.3,1.9H5.44c-2.2,0.03-3.95,1.85-3.92,4.04
			c0.03,2.15,1.77,3.88,3.92,3.92h1.79l-0.18,1.14c-3.42,1.4-5.66,4.72-5.66,8.42v1.33c0,1.93,0.61,3.8,1.75,5.36
			c-1.85,1.3-2.3,3.85-1,5.7c0.77,1.09,2.02,1.74,3.35,1.74h0.93v2.87c0,1.04,0.33,2.06,0.96,2.9h-5c-0.56,0-1.02,0.46-1.02,1.02
			C1.34,70.54,1.8,71,2.36,71h67.58c0.56,0,1.02-0.46,1.02-1.02c0-0.56-0.46-1.02-1.02-1.02H55.25V34.85h6.83L66.13,34.49z
			 M5.44,37.46c-1.07-0.02-1.92-0.91-1.9-1.99c0.02-1.04,0.86-1.87,1.9-1.9h2.72l-0.61,3.88H5.44z M3.43,50.39v-1.32
			c0-3.89,3.16-7.05,7.05-7.05H43.3c3.89,0,7.05,3.16,7.05,7.05v1.33c0,1.7-0.61,3.35-1.73,4.63C48.52,55.01,48.41,55,48.3,55H5.48
			c-0.11,0-0.21,0.01-0.32,0.01C4.04,53.74,3.43,52.09,3.43,50.39L3.43,50.39z M39.83,39.97c-0.28-3.66-3.47-6.4-7.13-6.13
			c-3.28,0.25-5.88,2.85-6.13,6.13H13.35l1.46-9.4c0.15-1,1.01-1.74,2.03-1.74h20.11c1.01,0,1.88,0.73,2.03,1.74l1.46,9.4H39.83z
			 M37.78,39.97h-9.16c0.28-2.53,2.56-4.36,5.09-4.08C35.85,36.12,37.54,37.82,37.78,39.97z M14.18,63.19v2.87
			c0,1.58-1.28,2.87-2.87,2.87s-2.87-1.28-2.87-2.87v-2.87H14.18z M5.48,61.15c-1.13-0.02-2.03-0.96-2.01-2.1
			c0.02-1.1,0.91-1.98,2.01-2.01h42.82c1.13-0.02,2.07,0.87,2.1,2.01c0.02,1.13-0.87,2.07-2.01,2.1c-0.03,0-0.06,0-0.09,0H5.48z
			 M22.11,63.19h15.05v2.87c0,1.04,0.33,2.06,0.95,2.9H15.27c0.62-0.84,0.95-1.86,0.95-2.9v-2.87H22.11z M44.93,66.06
			c0,1.58-1.29,2.87-2.87,2.87c-1.58,0-2.87-1.28-2.87-2.87v-2.87h5.74V66.06z M53.21,34.85v34.11h-7.19
			c0.62-0.84,0.95-1.86,0.95-2.9v-2.87h1.33c2.26,0,4.09-1.83,4.09-4.09c0-1.09-0.43-2.13-1.2-2.9c-0.17-0.17-0.35-0.32-0.55-0.46
			c1.14-1.55,1.75-3.43,1.74-5.36v-1.33c0-3.7-2.24-7.02-5.66-8.42l-0.18-1.14h1.79c2.2,0,3.98-1.78,3.98-3.97
			c0-0.23-0.02-0.45-0.06-0.68L53.21,34.85z M48.35,33.58c1.07,0.02,1.92,0.91,1.9,1.99c-0.02,1.04-0.86,1.87-1.9,1.9h-2.11
			l-0.6-3.88H48.35z M43.01,29.95l1.57,10.12c-0.42-0.06-0.85-0.09-1.28-0.09h-0.8l-1.51-9.71c-0.3-2-2.02-3.47-4.05-3.46H16.84
			c-2.02-0.01-3.74,1.46-4.05,3.46l-1.51,9.7h-0.8c-0.43,0-0.85,0.03-1.28,0.09l1.57-10.11c0.45-2.99,3.03-5.2,6.06-5.19h20.11
			C39.98,24.74,42.55,26.95,43.01,29.95z"/>
		<path id="Path_100" class="st0" d="M55.45,5.26h-5.79C49.09,5.25,48.52,5.38,48,5.63c-1.32,0.63-2.15,1.96-2.14,3.41v18.89
			c0,1.68,1.36,3.04,3.04,3.04h1.46c1.68,0,3.04-1.36,3.04-3.04v-3.31c0.8,0,1.55-0.01,2.05-0.01c5.34,0.08,9.74-4.19,9.82-9.54
			c0.08-5.34-4.19-9.74-9.54-9.82C55.64,5.26,55.54,5.26,55.45,5.26L55.45,5.26z M55.45,22.57c-0.71,0-1.94,0-3.08,0.01
			c-0.56,0-1.01,0.46-1.01,1.02v4.33c0,0.55-0.44,1.01-1,1.01c0,0,0,0,0,0H48.9c-0.55,0-1-0.45-1-1V9.04c0-0.67,0.38-1.28,0.99-1.57
			c0.25-0.11,0.51-0.17,0.78-0.17h5.79c4.22-0.07,7.69,3.3,7.76,7.51c0.07,4.22-3.3,7.69-7.51,7.76
			C55.61,22.57,55.53,22.57,55.45,22.57L55.45,22.57z"/>
		<path id="Path_101" class="st0" d="M55.45,10.77h-3.06c-0.56,0-1.02,0.46-1.02,1.02c0,0,0,0,0,0c0,1.22,0.01,5.14,0.02,6.32
			c0,0.56,0.46,1.01,1.02,1.01h0c1.13-0.01,2.33-0.01,3.04-0.01c2.3,0.05,4.21-1.78,4.26-4.08c0.05-2.3-1.78-4.21-4.08-4.26
			C55.58,10.76,55.51,10.76,55.45,10.77L55.45,10.77z M55.45,17.07c-0.5,0-1.24,0-2.03,0.01c0-0.83-0.01-3.39-0.01-4.27h2.04
			c1.18-0.06,2.18,0.84,2.24,2.02c0.06,1.18-0.84,2.18-2.02,2.24C55.6,17.07,55.53,17.07,55.45,17.07z"/>
		<path id="Path_102" class="st0" d="M10.19,54.19c1.81,0,3.28-1.47,3.28-3.28v-3.75c-0.03-1.81-1.53-3.25-3.34-3.22
			c-1.77,0.03-3.19,1.46-3.22,3.22v3.75C6.91,52.72,8.38,54.19,10.19,54.19z M8.95,47.16c0.02-0.69,0.59-1.23,1.28-1.21
			c0.66,0.02,1.19,0.55,1.21,1.21v3.75c-0.02,0.69-0.59,1.23-1.28,1.21c-0.66-0.02-1.19-0.55-1.21-1.21V47.16z"/>
		<path id="Path_103" class="st0" d="M43.6,54.19c1.81,0,3.28-1.47,3.28-3.28v-3.75c-0.03-1.81-1.53-3.25-3.34-3.22
			c-1.77,0.03-3.19,1.46-3.22,3.22v3.75C40.32,52.72,41.79,54.19,43.6,54.19z M42.36,47.16c0.02-0.69,0.59-1.23,1.28-1.21
			c0.66,0.02,1.19,0.55,1.21,1.21v3.75c-0.02,0.69-0.59,1.23-1.28,1.21c-0.66-0.02-1.19-0.55-1.21-1.21V47.16z"/>
		<path id="Path_104" class="st0" d="M18.01,48.45h17.77c0.56,0,1.02-0.46,1.02-1.02c0-0.56-0.46-1.02-1.02-1.02H18.01
			c-0.56,0-1.02,0.46-1.02,1.02C16.99,47.99,17.44,48.45,18.01,48.45z"/>
		<path id="Path_105" class="st0" d="M18.01,52.1h17.77c0.56,0,1.02-0.46,1.02-1.02c0-0.56-0.46-1.02-1.02-1.02H18.01
			c-0.56,0-1.02,0.46-1.02,1.02C16.99,51.65,17.44,52.1,18.01,52.1z"/>
	</g>
</g>
</svg>
