<svg id="parking-area_1_" data-name="parking-area (1)" xmlns="http://www.w3.org/2000/svg" width="74.861" height="74.861" viewBox="0 0 74.861 74.861">
  <g id="Group_1" data-name="Group 1" transform="translate(0 0)">
    <path id="Path_6" data-name="Path 6" d="M19.08,29.382H42.1a2.048,2.048,0,0,0,2.046-2.046V4.313A2.048,2.048,0,0,0,42.1,2.267H19.08a2.048,2.048,0,0,0-2.046,2.046v.478H13.106V3.9a3.9,3.9,0,1,0-7.8,0V44.2a1.1,1.1,0,1,0,2.193,0V3.9a1.705,1.705,0,1,1,3.41,0V66.442H7.5V49.207a1.1,1.1,0,1,0-2.193,0V66.442h-1.1A4.208,4.208,0,0,0,0,70.643v2.474a1.733,1.733,0,0,0,1.731,1.731H16.684a1.735,1.735,0,0,0,1.735-1.731V70.643a4.208,4.208,0,0,0-4.205-4.2H13.106V26.858h3.928v.478a2.048,2.048,0,0,0,2.046,2.046ZM16.226,70.643v2.012H2.193V70.643a2.012,2.012,0,0,1,2.012-2.008H14.214A2.012,2.012,0,0,1,16.226,70.643Zm-3.12-58.374h3.928V19.38H13.106ZM19.228,4.46H41.956V27.189H19.228V4.46ZM17.034,6.984v3.091H13.106V6.984Zm-3.928,17.68V21.573h3.928v3.091Z" transform="translate(0 0)" fill="#1b3e6c"/>
    <path id="Path_7" data-name="Path 7" d="M201.63,246.9a4.48,4.48,0,0,0-4.462-4.487h-4.192l-1.436-3.029c-.867-1.828-1.522-3.076-2.685-3.728-1.074-.6-2.3-.6-4.532-.592H165.782c-2.228-.007-3.454-.011-4.528.592-1.163.653-1.818,1.9-2.685,3.728l-1.436,3.029h-4.192a4.487,4.487,0,0,0-.061,8.972l-1.27,2.678a5.19,5.19,0,0,0-.75,3.141c0,.127,0,9.975,0,9.975,0,.829,0,2.1,1.181,2.576v3.057a2.745,2.745,0,0,0,2.742,2.742h5.085a2.743,2.743,0,0,0,2.738-2.742V269.94h9.982a1.1,1.1,0,0,0,0-2.193H153.066c-.011-.183-.012-10.419-.012-10.55a3.407,3.407,0,0,1,.538-2.19l1.715-3.617h39.5l1.715,3.618a3.37,3.37,0,0,1,.534,2.17c0,.135,0,10.385-.012,10.569H177.581a1.1,1.1,0,1,0,0,2.193H187.5v2.874a2.745,2.745,0,0,0,2.742,2.742h5.085a2.745,2.745,0,0,0,2.742-2.742v-3.058c1.176-.471,1.177-1.747,1.177-2.575,0,0,0-9.861,0-9.993a5.2,5.2,0,0,0-.746-3.122l-1.27-2.679A4.48,4.48,0,0,0,201.63,246.9Zm-50.958,0a2.284,2.284,0,0,1,2.269-2.294h3.153l-2.174,4.587h-.978a2.284,2.284,0,0,1-2.269-2.294Zm9.743,23.038v2.874a.554.554,0,0,1-.545.549h-5.085a.556.556,0,0,1-.549-.549V269.94Zm.135-29.614c.769-1.623,1.231-2.449,1.776-2.755.571-.32,1.653-.317,3.448-.311H184.33c1.8-.006,2.881-.009,3.452.312.545.306,1.007,1.132,1.776,2.755l4.2,8.87H156.346Zm35.322,32.488a.556.556,0,0,1-.549.549h-5.085a.556.556,0,0,1-.549-.549V269.94h6.183Zm1.3-23.619h-.978l-2.175-4.587h3.153a2.294,2.294,0,0,1,0,4.587Z" transform="translate(-126.769 -200.696)" fill="#1b3e6c"/>
    <path id="Path_8" data-name="Path 8" d="M285.81,386.629h11.12a1.1,1.1,0,1,0,0-2.193H285.81a1.1,1.1,0,0,0,0,2.193Z" transform="translate(-243.084 -328.227)" fill="#1b3e6c"/>
    <path id="Path_9" data-name="Path 9" d="M285.81,420.531h11.12a1.1,1.1,0,1,0,0-2.193H285.81a1.1,1.1,0,0,0,0,2.193Z" transform="translate(-243.084 -357.172)" fill="#1b3e6c"/>
    <path id="Path_10" data-name="Path 10" d="M402.349,374.927a4.6,4.6,0,1,0-4.6,4.607A4.61,4.61,0,0,0,402.349,374.927Zm-7.017,0a2.412,2.412,0,1,1,2.414,2.414A2.417,2.417,0,0,1,395.332,374.927Z" transform="translate(-335.657 -316.175)" fill="#1b3e6c"/>
    <path id="Path_11" data-name="Path 11" d="M204.35,374.927a4.6,4.6,0,1,0,4.6-4.607A4.61,4.61,0,0,0,204.35,374.927Zm7.017,0a2.412,2.412,0,1,1-2.414-2.414A2.417,2.417,0,0,1,211.367,374.927Z" transform="translate(-174.471 -316.175)" fill="#1b3e6c"/>
  </g>
  <path id="Path_12" data-name="Path 12" d="M178.627,45.459h-4.5a1.108,1.108,0,0,0-1.1,1.1V62.718a1.1,1.1,0,1,0,2.193,0v-5.93c1.054-.006,2.623-.014,3.4-.014a5.658,5.658,0,1,0,0-11.315Zm0,9.122c-.776,0-2.323.008-3.379.014-.006-1.083-.014-2.687-.014-3.478,0-.666,0-2.34-.008-3.465h3.4a3.466,3.466,0,1,1,0,6.929Z" transform="translate(-147.731 -38.812)" fill="#1b3e6c"/>
</svg>
