<?xml version="1.0" encoding="utf-8"?>
<!-- Generator: Adobe Illustrator 24.1.0, SVG Export Plug-In . SVG Version: 6.00 Build 0)  -->
<svg version="1.1" id="Layer_1" xmlns="http://www.w3.org/2000/svg" xmlns:xlink="http://www.w3.org/1999/xlink" x="0px" y="0px"
	 viewBox="0 0 72 72" style="enable-background:new 0 0 72 72;" xml:space="preserve">
<style type="text/css">
	.st0{fill:#FFFFFF;}
</style>
<circle id="Ellipse_4" class="st0" cx="36.41" cy="36.02" r="2.73"/>
<g id="Group_83" transform="translate(0)">
	<path id="Path_138" class="st0" d="M36.42,17.71c0.57,0,1.03-0.46,1.03-1.03v-1.5c-0.05-0.57-0.55-0.98-1.12-0.93
		c-0.5,0.04-0.89,0.44-0.93,0.93v1.5C35.4,17.25,35.86,17.71,36.42,17.71z"/>
	<path id="Path_139" class="st0" d="M51.81,20.59c-0.4-0.4-1.05-0.4-1.45,0l-1.06,1.06c-0.37,0.43-0.31,1.08,0.12,1.45
		c0.38,0.32,0.94,0.32,1.32,0l1.06-1.06C52.21,21.64,52.21,20.99,51.81,20.59z"/>
	<path id="Path_140" class="st0" d="M55.63,34.99c-0.57,0.05-0.98,0.55-0.93,1.12c0.04,0.5,0.44,0.89,0.93,0.93h1.5
		c0.57-0.05,0.98-0.55,0.93-1.12c-0.04-0.5-0.44-0.89-0.93-0.93H55.63z"/>
	<path id="Path_141" class="st0" d="M50.67,48.91c-0.43-0.37-1.08-0.31-1.45,0.12c-0.32,0.38-0.32,0.94,0,1.32l1.06,1.06
		c0.43,0.37,1.08,0.31,1.45-0.12c0.32-0.38,0.32-0.94,0-1.32L50.67,48.91z"/>
	<path id="Path_142" class="st0" d="M35.28,55.24v1.5c0.05,0.57,0.55,0.98,1.12,0.93c0.5-0.04,0.89-0.44,0.93-0.93v-1.5
		c-0.05-0.57-0.55-0.98-1.12-0.93C35.71,54.35,35.32,54.74,35.28,55.24z"/>
	<path id="Path_143" class="st0" d="M21.97,48.83l-1.06,1.06c-0.37,0.43-0.31,1.08,0.12,1.45c0.38,0.32,0.94,0.32,1.32,0l1.06-1.06
		c0.37-0.43,0.31-1.08-0.12-1.45C22.91,48.51,22.35,48.51,21.97,48.83z"/>
	<path id="Path_144" class="st0" d="M15.58,34.88c-0.57,0.05-0.98,0.55-0.93,1.12c0.04,0.5,0.44,0.89,0.93,0.93h1.5
		c0.57-0.05,0.98-0.55,0.93-1.12c-0.04-0.5-0.44-0.89-0.93-0.93H15.58z"/>
	<path id="Path_145" class="st0" d="M23.49,21.57l-1.06-1.06c-0.37-0.43-1.01-0.49-1.45-0.12c-0.43,0.37-0.49,1.01-0.12,1.45
		c0.04,0.05,0.08,0.09,0.12,0.12l1.06,1.06c0.37,0.43,1.01,0.49,1.45,0.12c0.43-0.37,0.49-1.01,0.12-1.45
		C23.58,21.65,23.54,21.61,23.49,21.57z"/>
	<path id="Path_146" class="st0" d="M39.16,38.58l7.3,3.75c0.48,0.3,1.12,0.16,1.42-0.32c0.3-0.48,0.16-1.12-0.32-1.42
		c-0.05-0.03-0.1-0.06-0.16-0.08l-7.29-3.75c0.39-1.92-0.77-3.82-2.66-4.36V21.97c-0.05-0.57-0.55-0.98-1.12-0.93
		c-0.5,0.04-0.89,0.44-0.93,0.93V32.4c-1.25,0.36-2.23,1.34-2.59,2.59h-5.09c-0.57,0.05-0.98,0.55-0.93,1.12
		c0.04,0.5,0.44,0.89,0.93,0.93h5.08c0.56,2,2.63,3.16,4.63,2.6C38.09,39.45,38.69,39.09,39.16,38.58L39.16,38.58z"/>
	<path id="Path_147" class="st0" d="M62.85,34.99c0.56-0.05,0.98-0.54,0.94-1.1C62.62,18.77,49.41,7.46,34.29,8.64
		S7.86,23.02,9.03,38.15S23.42,64.58,38.54,63.4c13.49-1.05,24.21-11.77,25.26-25.26c-0.01-0.57-0.47-1.02-1.04-1.01
		c-0.5,0.01-0.92,0.37-1,0.86c-1.09,13.99-13.31,24.46-27.31,23.37S9.99,48.05,11.08,34.05C12.17,20.06,24.39,9.6,38.39,10.68
		c12.48,0.97,22.4,10.89,23.37,23.37C61.8,34.61,62.29,35.04,62.85,34.99L62.85,34.99z"/>
	<path id="Path_148" class="st0" d="M61.13,11.3C49.52-0.31,31.39-2.27,17.56,6.58c-0.5,0.26-0.7,0.89-0.43,1.39
		c0.26,0.5,0.89,0.7,1.39,0.43c0.05-0.03,0.1-0.06,0.15-0.1c15.31-9.78,35.65-5.3,45.43,10.02s5.3,35.65-10.02,45.43
		c-8.09,5.17-18.04,6.54-27.23,3.77c-0.56-0.12-1.1,0.24-1.22,0.79c-0.1,0.49,0.16,0.98,0.62,1.17
		c18.47,5.61,37.99-4.81,43.61-23.28C73.63,33.85,70.27,20.43,61.13,11.3z"/>
	<path id="Path_149" class="st0" d="M23.14,66.13C6.5,58.8-1.03,39.37,6.31,22.74c2.07-4.69,5.2-8.83,9.15-12.09
		c0.4-0.4,0.4-1.05,0-1.45c-0.35-0.35-0.9-0.4-1.31-0.12C-0.73,21.36-2.83,43.4,9.47,58.29c3.47,4.2,7.86,7.53,12.84,9.72
		c0.54,0.18,1.12-0.12,1.3-0.66C23.76,66.89,23.56,66.37,23.14,66.13L23.14,66.13z"/>
</g>
</svg>
