<?xml version="1.0" encoding="utf-8"?>
<!-- Generator: Adobe Illustrator 24.1.0, SVG Export Plug-In . SVG Version: 6.00 Build 0)  -->
<svg version="1.1" id="Layer_1" xmlns="http://www.w3.org/2000/svg" xmlns:xlink="http://www.w3.org/1999/xlink" x="0px" y="0px"
	 viewBox="0 0 163 49" style="enable-background:new 0 0 163 49;" xml:space="preserve">
<style type="text/css">
	.st0{fill:#FFFFFF;}
	.st1{fill:#4875B6;}
	.st2{fill:#E6E7E8;}
</style>
<g>
	<g>
		<path class="st0" d="M31.55,1.99v4.1h-1.97V1.5c-1.5-0.3-3.05-0.46-4.65-0.46c-12.89,0-23.34,10.45-23.34,23.34
			s10.45,23.34,23.34,23.34c12.89,0,23.34-10.45,23.34-23.34C48.27,13.79,41.22,4.85,31.55,1.99z"/>
		<path class="st1" d="M15.66,34.96l1.63-1.02c1.63,2.77,3.41,4.21,6.52,4.21c3.26,0,5.77-2.47,5.77-7.09V13h1.97v17.9
			c0,3.07-0.95,5.42-2.43,6.9c-1.4,1.4-3.3,2.12-5.42,2.12C19.75,39.93,17.29,37.88,15.66,34.96z"/>
		<path class="st2" d="M47.77,29.22L31.55,13v17.9c0,3.07-0.95,5.42-2.43,6.9c-1.4,1.4-3.3,2.12-5.42,2.12
			c-2.6,0-4.56-0.89-6.06-2.34l9.98,9.98C37.63,46.42,45.72,38.94,47.77,29.22z"/>
	</g>
	<g>
		<path class="st0" d="M57.67,25.34l1.51-1.3c1.14,1.72,2.31,2.65,4.24,2.65c2.09,0,3.63-1.51,3.63-4.45V9.81h2.12v12.41
			c0,2.17-0.64,3.82-1.7,4.88c-1.03,1.01-2.44,1.54-4.08,1.54C60.61,28.63,58.83,27.25,57.67,25.34z"/>
		<path class="st0" d="M73.23,19.32h7.37v2.15h-7.37V19.32z"/>
		<path class="st0" d="M84.95,9.81h6.95c4.19,0,6.95,2.23,6.95,5.89v0.05c0,4-3.34,6.07-7.29,6.07h-4.51v6.55h-2.09V9.81z
			 M91.63,19.91c3.07,0,5.09-1.64,5.09-4.08v-0.05c0-2.65-1.99-4.03-4.98-4.03h-4.69v8.17H91.63z"/>
		<path class="st0" d="M107.67,9.67h1.96l8.46,18.69h-2.25l-2.17-4.9h-10.1l-2.2,4.9h-2.15L107.67,9.67z M112.84,21.58l-4.22-9.46
			l-4.24,9.46H112.84z"/>
		<path class="st0" d="M121.75,9.81h7.98c2.28,0,4.11,0.69,5.28,1.86c0.9,0.9,1.43,2.2,1.43,3.66v0.05c0,3.08-2.12,4.88-5.04,5.41
			l5.7,7.58h-2.57l-5.38-7.21h-5.3v7.21h-2.09V9.81z M129.55,19.27c2.78,0,4.77-1.43,4.77-3.82V15.4c0-2.28-1.75-3.66-4.75-3.66
			h-5.73v7.53H129.55z"/>
		<path class="st0" d="M140.92,9.81h2.09v11.08l10.66-11.08h2.7l-7.95,8.11l8.3,10.45h-2.62l-7.13-8.99l-3.95,4v4.98h-2.09V9.81z"/>
		<circle class="st0" cx="76.91" cy="20.4" r="4.44"/>
	</g>
	<g>
		<g>
			<path class="st2" d="M52.92,34.58h2.28c1.38,0,2.28,0.73,2.28,1.94v0.02c0,1.32-1.1,2-2.4,2h-1.48v2.15h-0.69V34.58z M55.12,37.9
				c1.01,0,1.67-0.54,1.67-1.34v-0.02c0-0.87-0.65-1.33-1.64-1.33h-1.54v2.69H55.12z"/>
			<path class="st2" d="M60.4,34.53h0.65l2.78,6.15h-0.74l-0.72-1.61h-3.32l-0.72,1.61h-0.71L60.4,34.53z M62.1,38.45l-1.39-3.11
				l-1.4,3.11H62.1z"/>
			<path class="st2" d="M65.03,34.58h2.62c0.75,0,1.35,0.23,1.73,0.61c0.3,0.3,0.47,0.72,0.47,1.2v0.02c0,1.01-0.7,1.6-1.66,1.78
				l1.87,2.49h-0.84l-1.77-2.37h-1.74v2.37h-0.69V34.58z M67.59,37.69c0.92,0,1.57-0.47,1.57-1.26v-0.02c0-0.75-0.58-1.2-1.56-1.2
				h-1.88v2.48H67.59z"/>
			<path class="st2" d="M71.33,34.58h0.69v3.65l3.51-3.65h0.89l-2.62,2.67l2.73,3.44h-0.86l-2.35-2.96l-1.3,1.32v1.64h-0.69V34.58z"
				/>
			<path class="st2" d="M77.67,34.58h0.69v6.1h-0.69V34.58z"/>
			<path class="st2" d="M80.14,34.58h0.64l3.85,4.89v-4.89h0.67v6.1h-0.55l-3.94-5.01v5.01h-0.67V34.58z"/>
			<path class="st2" d="M86.76,37.64v-0.02c0-1.67,1.23-3.16,3.06-3.16c1.03,0,1.67,0.3,2.28,0.81l-0.44,0.52
				c-0.47-0.41-0.99-0.7-1.86-0.7c-1.35,0-2.32,1.14-2.32,2.5v0.02c0,1.46,0.93,2.54,2.42,2.54c0.7,0,1.34-0.27,1.76-0.61v-1.52
				H89.8v-0.62h2.52v2.43c-0.57,0.51-1.42,0.93-2.45,0.93C87.95,40.78,86.76,39.39,86.76,37.64z"/>
			<path class="st2" d="M96.49,34.58h0.7l2.22,3.33l2.22-3.33h0.7v6.1h-0.69v-4.94l-2.22,3.27h-0.04l-2.22-3.26v4.94h-0.67V34.58z"
				/>
			<path class="st2" d="M106.32,34.53h0.64l2.78,6.15H109l-0.72-1.61h-3.32l-0.72,1.61h-0.71L106.32,34.53z M108.02,38.45
				l-1.39-3.11l-1.4,3.11H108.02z"/>
			<path class="st2" d="M110.95,34.58h0.64l3.85,4.89v-4.89h0.67v6.1h-0.55l-3.94-5.01v5.01h-0.67V34.58z"/>
			<path class="st2" d="M120.1,34.53h0.65l2.78,6.15h-0.74l-0.72-1.61h-3.32l-0.72,1.61h-0.71L120.1,34.53z M121.8,38.45l-1.39-3.11
				l-1.4,3.11H121.8z"/>
			<path class="st2" d="M124.1,37.64v-0.02c0-1.67,1.23-3.16,3.06-3.16c1.03,0,1.67,0.3,2.28,0.81L129,35.8
				c-0.47-0.41-0.99-0.7-1.86-0.7c-1.35,0-2.32,1.14-2.32,2.5v0.02c0,1.46,0.93,2.54,2.42,2.54c0.7,0,1.34-0.27,1.76-0.61v-1.52
				h-1.86v-0.62h2.52v2.43c-0.57,0.51-1.42,0.93-2.45,0.93C125.29,40.78,124.1,39.39,124.1,37.64z"/>
			<path class="st2" d="M131.21,34.58h4.41v0.63h-3.72v2.08h3.33v0.63h-3.33v2.14h3.77v0.63h-4.46V34.58z"/>
			<path class="st2" d="M137.06,34.58h0.7l2.22,3.33l2.22-3.33h0.7v6.1h-0.69v-4.94l-2.22,3.27h-0.04l-2.22-3.26v4.94h-0.67V34.58z"
				/>
			<path class="st2" d="M144.63,34.58h4.41v0.63h-3.72v2.08h3.33v0.63h-3.33v2.14h3.77v0.63h-4.46V34.58z"/>
			<path class="st2" d="M150.47,34.58h0.64l3.85,4.89v-4.89h0.67v6.1h-0.55l-3.94-5.01v5.01h-0.67V34.58z"/>
			<path class="st2" d="M158.97,35.21h-2.05v-0.64h4.8v0.64h-2.05v5.47h-0.7V35.21z"/>
		</g>
	</g>
</g>
</svg>
