<?xml version="1.0" encoding="utf-8"?>
<!-- Generator: Adobe Illustrator 24.1.0, SVG Export Plug-In . SVG Version: 6.00 Build 0)  -->
<svg version="1.1" id="Layer_1" xmlns="http://www.w3.org/2000/svg" xmlns:xlink="http://www.w3.org/1999/xlink" x="0px" y="0px"
	 viewBox="0 0 44 38" style="enable-background:new 0 0 44 38;" xml:space="preserve">
<style type="text/css">
	.st0{fill:#FFFFFF;}
	.st1{fill:#E6E7E8;}
	.st2{fill:#4875B6;}
</style>
<g>
	<path class="st0" d="M27.3,1.04v3.31H25.7V0.65c-1.21-0.24-2.46-0.37-3.76-0.37c-10.42,0-18.86,8.44-18.86,18.86S11.53,38,21.95,38
		s18.86-8.44,18.86-18.86C40.81,10.58,35.11,3.36,27.3,1.04z"/>
	<path class="st2" d="M14.46,27.69l1.32-0.82c1.32,2.24,2.76,3.4,5.27,3.4c2.63,0,4.66-2,4.66-5.73V9.94h1.59v14.47
		c0,2.48-0.77,4.38-1.96,5.58c-1.13,1.13-2.67,1.71-4.38,1.71C17.76,31.7,15.77,30.05,14.46,27.69z"/>
	<path class="st1" d="M40.4,23.05L27.3,9.94v14.47c0,2.48-0.77,4.38-1.96,5.58c-1.13,1.13-2.67,1.71-4.38,1.71
		c-2.1,0-3.69-0.72-4.9-1.89l8.07,8.07C32.21,36.95,38.75,30.9,40.4,23.05z"/>
</g>
</svg>
