<?xml version="1.0" encoding="utf-8"?>
<!-- Generator: Adobe Illustrator 24.1.0, SVG Export Plug-In . SVG Version: 6.00 Build 0)  -->
<svg version="1.1" id="Layer_1" xmlns="http://www.w3.org/2000/svg" xmlns:xlink="http://www.w3.org/1999/xlink" x="0px" y="0px"
	 viewBox="0 0 113 38" style="enable-background:new 0 0 113 38;" xml:space="preserve">
<style type="text/css">
	.st0{fill:#FFFFFF;}
	.st1{fill:#E6E7E8;}
	.st2{fill:#4875B6;}
</style>
<g>
	<path class="st0" d="M6.83,19.14l1.51-1.3c1.14,1.72,2.31,2.65,4.24,2.65c2.09,0,3.63-1.51,3.63-4.45V3.61h2.12v12.41
		c0,2.17-0.64,3.82-1.7,4.88c-1.03,1.01-2.44,1.54-4.08,1.54C9.77,22.43,7.99,21.05,6.83,19.14z"/>
	<path class="st0" d="M22.39,13.12h7.37v2.15h-7.37V13.12z"/>
	<path class="st0" d="M34.11,3.61h6.95c4.19,0,6.95,2.23,6.95,5.89v0.05c0,4-3.34,6.07-7.29,6.07h-4.51v6.55h-2.09L34.11,3.61
		L34.11,3.61z M40.79,13.71c3.07,0,5.09-1.64,5.09-4.08V9.58c0-2.65-1.99-4.03-4.98-4.03h-4.69v8.17h4.58V13.71z"/>
	<path class="st0" d="M56.83,3.47h1.96l8.46,18.69H65l-2.17-4.9h-10.1l-2.2,4.9h-2.15L56.83,3.47z M62,15.38l-4.22-9.46l-4.24,9.46
		H62z"/>
	<path class="st0" d="M70.91,3.61h7.98c2.28,0,4.11,0.69,5.28,1.86c0.9,0.9,1.43,2.2,1.43,3.66v0.05c0,3.08-2.12,4.88-5.04,5.41
		l5.7,7.58h-2.57l-5.38-7.21h-5.3v7.21h-2.09L70.91,3.61L70.91,3.61z M78.71,13.07c2.78,0,4.77-1.43,4.77-3.82V9.2
		c0-2.28-1.75-3.66-4.75-3.66H73v7.53H78.71z"/>
	<path class="st0" d="M90.08,3.61h2.09v11.08l10.66-11.08h2.7l-7.95,8.11l8.3,10.45h-2.62l-7.13-8.99l-3.95,4v4.98h-2.09V3.61H90.08
		z"/>
	<circle class="st0" cx="26.07" cy="14.2" r="4.44"/>
</g>
<g>
	<g>
		<path class="st1" d="M2.08,28.38h2.28c1.38,0,2.28,0.73,2.28,1.94v0.02c0,1.32-1.1,2-2.4,2H2.76v2.15H2.07v-6.11H2.08z M4.28,31.7
			c1.01,0,1.67-0.54,1.67-1.34v-0.02c0-0.87-0.65-1.33-1.64-1.33H2.77v2.69C2.77,31.7,4.28,31.7,4.28,31.7z"/>
		<path class="st1" d="M9.56,28.33h0.65l2.78,6.15h-0.74l-0.72-1.61H8.21l-0.72,1.61H6.78L9.56,28.33z M11.26,32.25l-1.39-3.11
			l-1.4,3.11H11.26z"/>
		<path class="st1" d="M14.19,28.38h2.62c0.75,0,1.35,0.23,1.73,0.61c0.3,0.3,0.47,0.72,0.47,1.2v0.02c0,1.01-0.7,1.6-1.66,1.78
			l1.87,2.49h-0.84l-1.77-2.37h-1.74v2.37h-0.69L14.19,28.38L14.19,28.38z M16.75,31.49c0.92,0,1.57-0.47,1.57-1.26v-0.02
			c0-0.75-0.58-1.2-1.56-1.2h-1.88v2.48H16.75z"/>
		<path class="st1" d="M20.49,28.38h0.69v3.65l3.51-3.65h0.89l-2.62,2.67l2.73,3.44h-0.86l-2.35-2.96l-1.3,1.32v1.64h-0.69V28.38z"
			/>
		<path class="st1" d="M26.83,28.38h0.69v6.1h-0.69V28.38z"/>
		<path class="st1" d="M29.3,28.38h0.64l3.85,4.89v-4.89h0.67v6.1h-0.55l-3.94-5.01v5.01H29.3C29.3,34.48,29.3,28.38,29.3,28.38z"/>
		<path class="st1" d="M35.92,31.44v-0.02c0-1.67,1.23-3.16,3.06-3.16c1.03,0,1.67,0.3,2.28,0.81l-0.44,0.52
			c-0.47-0.41-0.99-0.7-1.86-0.7c-1.35,0-2.32,1.14-2.32,2.5v0.02c0,1.46,0.93,2.54,2.42,2.54c0.7,0,1.34-0.27,1.76-0.61v-1.52
			h-1.86V31.2h2.52v2.43c-0.57,0.51-1.42,0.93-2.45,0.93C37.11,34.58,35.92,33.19,35.92,31.44z"/>
		<path class="st1" d="M45.65,28.38h0.7l2.22,3.33l2.22-3.33h0.7v6.1H50.8v-4.94l-2.22,3.27h-0.04l-2.22-3.26v4.94h-0.67
			C45.65,34.49,45.65,28.38,45.65,28.38z"/>
		<path class="st1" d="M55.48,28.33h0.64l2.78,6.15h-0.74l-0.72-1.61h-3.32l-0.72,1.61h-0.71L55.48,28.33z M57.18,32.25l-1.39-3.11
			l-1.4,3.11H57.18z"/>
		<path class="st1" d="M60.11,28.38h0.64l3.85,4.89v-4.89h0.67v6.1h-0.55l-3.94-5.01v5.01h-0.67
			C60.11,34.48,60.11,28.38,60.11,28.38z"/>
		<path class="st1" d="M69.26,28.33h0.65l2.78,6.15h-0.74l-0.72-1.61h-3.32l-0.72,1.61h-0.71L69.26,28.33z M70.96,32.25l-1.39-3.11
			l-1.4,3.11H70.96z"/>
		<path class="st1" d="M73.26,31.44v-0.02c0-1.67,1.23-3.16,3.06-3.16c1.03,0,1.67,0.3,2.28,0.81l-0.44,0.53
			c-0.47-0.41-0.99-0.7-1.86-0.7c-1.35,0-2.32,1.14-2.32,2.5v0.02c0,1.46,0.93,2.54,2.42,2.54c0.7,0,1.34-0.27,1.76-0.61v-1.52H76.3
			v-0.62h2.52v2.43c-0.57,0.51-1.42,0.93-2.45,0.93C74.45,34.58,73.26,33.19,73.26,31.44z"/>
		<path class="st1" d="M80.37,28.38h4.41v0.63h-3.72v2.08h3.33v0.63h-3.33v2.14h3.77v0.63h-4.46V28.38z"/>
		<path class="st1" d="M86.22,28.38h0.7l2.22,3.33l2.22-3.33h0.7v6.1h-0.69v-4.94l-2.22,3.27h-0.04l-2.22-3.26v4.94h-0.67V28.38z"/>
		<path class="st1" d="M93.79,28.38h4.41v0.63h-3.72v2.08h3.33v0.63h-3.33v2.14h3.77v0.63h-4.46V28.38z"/>
		<path class="st1" d="M99.63,28.38h0.64l3.85,4.89v-4.89h0.67v6.1h-0.55l-3.94-5.01v5.01h-0.67V28.38z"/>
		<path class="st1" d="M108.13,29.01h-2.05v-0.64h4.8v0.64h-2.05v5.47h-0.7V29.01z"/>
	</g>
</g>
</svg>
