<?xml version="1.0" encoding="utf-8"?>
<!-- Generator: Adobe Illustrator 24.1.0, SVG Export Plug-In . SVG Version: 6.00 Build 0)  -->
<svg version="1.1" id="Layer_1" xmlns="http://www.w3.org/2000/svg" xmlns:xlink="http://www.w3.org/1999/xlink" x="0px" y="0px"
	 viewBox="0 0 369.8 131.7" style="enable-background:new 0 0 369.8 131.7;" xml:space="preserve">
<style type="text/css">
	.st0{fill:#4875B7;}
	.st1{fill:#FFFFFF;}
	.st2{fill:#1E3E6B;}
</style>
<g>
	<path class="st0" d="M80,13.9v9.5h-4.6V12.8c-3.5-0.7-7.1-1.1-10.7-1.1c-29.8,0-53.9,24.1-53.9,53.9s24.1,53.9,53.9,53.9
		c29.8,0,53.9-24.1,53.9-53.9C118.6,41.1,102.3,20.5,80,13.9z"/>
	<g>
		<g>
			<path class="st1" d="M43.3,90l3.8-2.4c3.8,6.4,7.9,9.7,15.1,9.7c7.5,0,13.3-5.7,13.3-16.4V39.3H80v41.3c0,7.1-2.2,12.5-5.6,15.9
				c-3.2,3.2-7.6,4.9-12.5,4.9C52.7,101.5,47,96.8,43.3,90z"/>
		</g>
	</g>
	<path class="st2" d="M117.4,76.8L80,39.3v41.3c0,7.1-2.2,12.5-5.6,15.9c-3.2,3.2-7.6,4.9-12.5,4.9c-6,0-10.5-2.1-14-5.4l23,23
		C94,116.5,112.7,99.2,117.4,76.8z"/>
</g>
<g>
	<path d="M137.7,66.9l3.2-2.8c2.4,3.6,4.9,5.6,9,5.6c4.4,0,7.7-3.2,7.7-9.4V34h4.5v26.3c0,4.6-1.3,8.1-3.6,10.3
		c-2.2,2.1-5.2,3.3-8.6,3.3C144,73.8,140.2,70.9,137.7,66.9z"/>
	<path d="M170.7,54.1h15.6v4.5h-15.6V54.1z"/>
	<path d="M195.5,34h14.7c8.9,0,14.7,4.7,14.7,12.5v0.1c0,8.5-7.1,12.9-15.4,12.9H200v13.9h-4.4V34z M209.7,55.4
		c6.5,0,10.8-3.5,10.8-8.6v-0.1c0-5.6-4.2-8.5-10.6-8.5H200v17.3H209.7z"/>
	<path d="M243.6,33.7h4.2l17.9,39.6h-4.8l-4.6-10.4h-21.4l-4.7,10.4h-4.5L243.6,33.7z M254.6,58.9l-8.9-20l-9,20H254.6z"/>
	<path d="M273.4,34h16.9c4.8,0,8.7,1.5,11.2,3.9c1.9,1.9,3,4.7,3,7.7v0.1c0,6.5-4.5,10.3-10.7,11.5L306,73.3h-5.4L289.1,58h-11.2
		v15.3h-4.4V34z M290,54c5.9,0,10.1-3,10.1-8.1v-0.1c0-4.8-3.7-7.7-10-7.7h-12.1V54H290z"/>
	<path d="M314,34h4.4v23.5L341,34h5.7l-16.8,17.2l17.6,22.1h-5.6l-15.1-19l-8.4,8.5v10.6H314V34z"/>
</g>
<g>
	<path class="st0" d="M127.7,86.4h4.8c2.9,0,4.8,1.6,4.8,4.1v0c0,2.8-2.3,4.2-5.1,4.2h-3.1v4.6h-1.5V86.4z M132.4,93.5
		c2.1,0,3.5-1.1,3.5-2.8v0c0-1.8-1.4-2.8-3.5-2.8h-3.3v5.7H132.4z"/>
	<path class="st0" d="M143.5,86.3h1.4l5.9,13h-1.6l-1.5-3.4h-7l-1.5,3.4h-1.5L143.5,86.3z M147.1,94.6l-2.9-6.6l-3,6.6H147.1z"/>
	<path class="st0" d="M153.3,86.4h5.6c1.6,0,2.9,0.5,3.7,1.3c0.6,0.6,1,1.5,1,2.5v0c0,2.1-1.5,3.4-3.5,3.8l4,5.3h-1.8l-3.7-5h-3.7v5
		h-1.5V86.4z M158.8,93c1.9,0,3.3-1,3.3-2.7v0c0-1.6-1.2-2.5-3.3-2.5h-4V93H158.8z"/>
	<path class="st0" d="M166.7,86.4h1.5v7.7l7.4-7.7h1.9l-5.5,5.7l5.8,7.3h-1.8l-5-6.3l-2.8,2.8v3.5h-1.5V86.4z"/>
	<path class="st0" d="M180.1,86.4h1.5v12.9h-1.5V86.4z"/>
	<path class="st0" d="M185.3,86.4h1.4l8.1,10.4V86.4h1.4v12.9h-1.2l-8.3-10.6v10.6h-1.4V86.4z"/>
	<path class="st0" d="M199.4,92.9L199.4,92.9c0-3.6,2.6-6.7,6.5-6.7c2.2,0,3.5,0.6,4.8,1.7l-0.9,1.1c-1-0.9-2.1-1.5-3.9-1.5
		c-2.9,0-4.9,2.4-4.9,5.3v0c0,3.1,2,5.4,5.1,5.4c1.5,0,2.8-0.6,3.7-1.3v-3.2h-3.9v-1.3h5.3v5.2c-1.2,1.1-3,2-5.2,2
		C201.9,99.6,199.4,96.6,199.4,92.9z"/>
	<path class="st0" d="M220,86.4h1.5l4.7,7.1l4.7-7.1h1.5v12.9h-1.5V88.9l-4.7,6.9h-0.1l-4.7-6.9v10.5H220V86.4z"/>
	<path class="st0" d="M240.8,86.3h1.4l5.9,13h-1.6l-1.5-3.4h-7l-1.5,3.4h-1.5L240.8,86.3z M244.4,94.6l-2.9-6.6l-3,6.6H244.4z"/>
	<path class="st0" d="M250.6,86.4h1.4l8.1,10.4V86.4h1.4v12.9h-1.2L252,88.7v10.6h-1.4V86.4z"/>
	<path class="st0" d="M269.9,86.3h1.4l5.9,13h-1.6l-1.5-3.4h-7l-1.5,3.4h-1.5L269.9,86.3z M273.5,94.6l-2.9-6.6l-3,6.6H273.5z"/>
	<path class="st0" d="M278.4,92.9L278.4,92.9c0-3.6,2.6-6.7,6.5-6.7c2.2,0,3.5,0.6,4.8,1.7l-0.9,1.1c-1-0.9-2.1-1.5-3.9-1.5
		c-2.9,0-4.9,2.4-4.9,5.3v0c0,3.1,2,5.4,5.1,5.4c1.5,0,2.8-0.6,3.7-1.3v-3.2h-3.9v-1.3h5.3v5.2c-1.2,1.1-3,2-5.2,2
		C280.9,99.6,278.4,96.6,278.4,92.9z"/>
	<path class="st0" d="M293.5,86.4h9.3v1.3h-7.9v4.4h7.1v1.3h-7.1V98h8v1.3h-9.4V86.4z"/>
	<path class="st0" d="M305.9,86.4h1.5l4.7,7.1l4.7-7.1h1.5v12.9h-1.5V88.9l-4.7,6.9H312l-4.7-6.9v10.5h-1.4V86.4z"/>
	<path class="st0" d="M321.9,86.4h9.3v1.3h-7.9v4.4h7.1v1.3h-7.1V98h8v1.3h-9.4V86.4z"/>
	<path class="st0" d="M334.3,86.4h1.4l8.1,10.4V86.4h1.4v12.9H344l-8.3-10.6v10.6h-1.4V86.4z"/>
	<path class="st0" d="M352.3,87.8h-4.3v-1.3h10.2v1.3h-4.3v11.6h-1.5V87.8z"/>
</g>
</svg>
