<?xml version="1.0" encoding="utf-8"?>
<!-- Generator: Adobe Illustrator 24.1.0, SVG Export Plug-In . SVG Version: 6.00 Build 0)  -->
<svg version="1.1" id="Layer_1" xmlns:svgjs="http://svgjs.com/svgjs"
	 xmlns="http://www.w3.org/2000/svg" xmlns:xlink="http://www.w3.org/1999/xlink" x="0px" y="0px" viewBox="0 0 512 512"
	 style="enable-background:new 0 0 512 512;" xml:space="preserve">
<style type="text/css">
	.st0{fill:#DDDFEB;}
</style>
<g>
	<path class="st0" d="M256,0C114.7,0,0,114.7,0,256c0,141.3,114.7,256,256,256c141.3,0,256-114.7,256-256C512,114.7,397.3,0,256,0z
		 M279.2,384.4h-3.9v8c0,13.2-10.9,24.1-24.1,24.1s-24.1-10.9-24.1-24.1v-8H187c-13.2,0-24.1-10.9-24.1-24.1V151.7
		c0-13.2,10.9-24.1,24.1-24.1h40.1v-8c0-13.2,10.9-24.1,24.1-24.1s24.1,10.9,24.1,24.1v9c36.3,5.8,64.2,37.6,64.2,75.5
		c0,16.4-5.1,31.1-14.1,43.7c18.3,13.8,30.2,36,30.2,60.4C355.6,350.1,321.2,384.4,279.2,384.4z M279.2,280.1h-68.1v56.2h68.1
		c15.7,0,28.3-12.5,28.3-28.3C307.4,292.6,294.9,280.1,279.2,280.1z M291.4,204c0-15.7-12.5-28.3-28.3-28.3h-52v56.2h52
		C278.9,231.9,291.4,219.4,291.4,204z"/>
</g>
</svg>
